<svg width="600" height="110" viewBox="0 0 600 110" fill="none" xmlns="http://www.w3.org/2000/svg">
<path d="M131.897 44.8C112.597 39.9 108.997 39 108.997 33.4C108.997 27.8 115.197 24.5 120.597 24.5C128.697 24.5 135.197 26.8 135.697 36.1H152.097C152.097 18.3 137.297 11.1 121.297 11.1C107.397 11.1 92.5969 18.6 92.5969 34.4C92.5969 48.8 104.097 53.2 115.497 56.2C126.897 59.2 138.297 60.6 138.297 68.9C138.297 77.2 129.297 78.5 123.297 78.5C114.297 78.5 106.297 74.5 106.297 64.3H90.0969C90.0969 83.2 105.797 91.6 122.797 91.6C143.697 91.6 154.797 81.1 154.797 66.9C154.797 49.8 137.497 46.2 131.897 44.8ZM211.597 34.4H193.697L174.397 54.4V13.2H159.197V90.1H174.497V70.9L180.397 65.3L195.697 90.1H214.097L190.797 54.8L211.597 34.4ZM250.897 63.6C250.897 74.7 247.297 79.5 239.097 79.5C231.997 79.5 229.297 75 229.297 65.9V34.4H214.197V68.7C214.197 82.5 218.297 91.6 234.497 91.6C241.397 91.7 247.797 88.2 251.497 82.4H251.797V90.1H266.297V34.4H251.097L250.897 63.6ZM60.6969 29.8C57.6969 21.5 77.9969 0 40.7969 0C9.19694 0 6.19695 31.4 4.79695 33.9C2.69695 36.6 1.19695 39.7 0.296945 43C-0.503055 47.1 0.296951 51.5 2.89695 51.5C6.79695 51.5 1.99694 43.6 6.79695 43.6C12.8969 43.6 19.997 53.5 21.897 59C18.697 64.6 14.0969 68.6 10.7969 67.1C6.89695 65.8 4.29695 62.2 4.09695 58.1C4.09695 54.5 0.796948 54.6 1.09695 59.2C1.49695 64.5 4.39695 69.4 8.89695 72.3C13.997 76.3 17.9969 81.4 20.7969 87.3C22.2969 91 24.2969 92.9 29.6969 92.9C35.0969 92.9 30.9969 97.6 34.6969 97.6C38.3969 97.6 36.1969 92.4 38.3969 92.4C40.5969 92.4 38.3969 97.4 42.4969 97.4C48.7969 97.4 45.9969 89.5 48.0969 88.2C50.1969 86.9 77.0969 72.5 76.6969 54.8C76.0969 37.1 63.6969 38.1 60.6969 29.8ZM34.2969 79.9C31.2969 78.2 27.6969 77.8 24.2969 78.8C21.8969 79.7 19.597 78.4 21.497 72.3C22.397 69.2 23.697 66.3 25.397 63.6C30.097 68.5 34.3969 73.7 38.3969 79.1C38.5969 80.9 35.7969 81.6 34.2969 79.8V79.9V79.9ZM52.5969 69.8C44.4969 70 37.7969 63.7 37.5969 55.7C37.3969 47.6 43.6969 40.9 51.6969 40.7C59.7969 40.5 66.4969 46.8 66.6969 54.8C66.6969 54.9 66.6969 55 66.6969 55.1C66.7969 63 60.4969 69.5 52.5969 69.6C52.5969 69.6 52.5969 69.6 52.4969 69.6V69.8H52.5969ZM462.197 32.9C455.297 32.8 448.897 36.3 445.197 42.1H444.897V34.4H430.297V90.1H445.497V60.9C445.497 49.8 449.097 45 457.297 45C464.397 45 467.097 49.5 467.097 58.6V90H482.397V55.7C482.497 42 478.397 32.9 462.197 32.9ZM583.997 34.4L571.797 72.4L559.197 34.3H542.897V13.2H527.597V41C523.797 35.5 517.497 32.4 510.897 32.7C494.497 32.7 486.297 46.6 486.297 61.5C486.297 76.4 494.497 91.3 511.197 91.3C517.897 91.7 524.297 88.4 527.897 82.7V89.8H542.397V35.2L562.197 86.5C563.997 90 562.697 94.4 559.097 96.2C558.397 96.6 557.597 96.8 556.897 96.9C553.897 96.9 550.897 96.7 547.997 96.3V109C551.097 109.3 554.197 109.5 557.397 109.5C565.997 110.7 574.197 105.3 576.597 96.9L599.797 34.2L583.997 34.4ZM515.097 80C505.597 80 501.697 70.9 501.697 62.1C501.697 53.3 505.197 44.5 515.097 44.5C525.097 44.5 528.197 53.1 528.197 62.2C528.197 71.3 525.197 80 515.097 80ZM272.797 90.1H288.097V13.2H272.797V90.1ZM423.797 48.7C423.797 35.3 410.397 32.9 399.397 32.9C386.897 32.9 374.097 37.2 373.197 51.5H388.497C388.997 45.5 392.797 43.1 398.597 43.1C404.397 43.1 408.497 44 408.497 50.6C408.497 57.2 399.797 56.5 390.497 57.9C381.097 59.3 371.597 62.2 371.597 74.6C371.597 85.7 379.997 91.3 390.497 91.3C397.397 91.6 404.197 89.1 409.197 84.4C409.297 86.3 409.697 88.2 410.297 90H425.797C424.197 86.1 423.597 81.9 423.897 77.6L423.797 48.7ZM408.497 68.5C409.497 74.6 405.297 80.3 399.297 81.3C398.297 81.5 397.197 81.5 396.197 81.4C391.197 81.4 386.797 80 386.797 74.3C386.797 68.6 391.097 67.1 395.797 66.1C400.197 66 404.597 64.9 408.497 62.9V68.5V68.5ZM295.497 90.1H310.797V13.2H295.497V90.1ZM343.697 80C334.097 80 330.997 70.4 330.997 62.5C330.997 54.5 334.097 44.6 343.997 44.6C349.697 44.2 354.697 48.5 355.097 54.2H370.197C369.297 40 357.197 33.1 344.097 33.1C325.997 33.1 315.697 45.9 315.697 63.2C314.897 78.1 326.297 90.8 341.097 91.7C341.897 91.7 342.697 91.8 343.497 91.7C357.197 92.8 369.197 82.6 370.297 68.9H355.797C355.597 75.3 350.197 80.2 343.697 80Z" fill="black"/>
</svg>
